# xmcd CD database file
#
# Track frame offsets:
#	150
#	19961
#	32994
#
# Disc length: 690 seconds
#
# Revision: 0
# Processed by: cddbd v1.5.1PL2 Copyright (c) Steve Scherf et al.
# Submitted via: CDex 1.51
#
DISCID=2002b003
DTITLE=湘南探偵団 - BLUE
DYEAR=2006
DGENRE=J-Pop
TTITLE0=BLUE
TTITLE1=HANG ON SONG
TTITLE2=されど、微笑み
EXTD=YEAR: 2006
EXTT0=
EXTT1=
EXTT2=
PLAYORDER=
